<mxfile host="65bd71144e">
    <diagram id="q0b_CqQYKVyWX-kguWWY" name="Page-1">
        <mxGraphModel dx="592" dy="680" grid="1" gridSize="10" guides="1" tooltips="1" connect="1" arrows="1" fold="1" page="1" pageScale="1" pageWidth="850" pageHeight="1100" background="none" math="0" shadow="0">
            <root>
                <mxCell id="0"/>
                <mxCell id="1" parent="0"/>
                <mxCell id="82" style="edgeStyle=none;sketch=0;jumpStyle=none;html=1;entryX=0.044;entryY=0.606;entryDx=0;entryDy=0;entryPerimeter=0;shadow=0;fillColor=#60a917;strokeColor=#2D7600;strokeWidth=5;" parent="1" source="54" target="79" edge="1">
                    <mxGeometry relative="1" as="geometry">
                        <Array as="points">
                            <mxPoint x="410" y="888"/>
                        </Array>
                    </mxGeometry>
                </mxCell>
                <mxCell id="83" style="edgeStyle=none;sketch=0;jumpStyle=none;html=1;entryX=0;entryY=0.5;entryDx=0;entryDy=0;shadow=0;fillColor=#60a917;strokeColor=#2D7600;strokeWidth=5;" parent="1" source="54" target="80" edge="1">
                    <mxGeometry relative="1" as="geometry">
                        <Array as="points">
                            <mxPoint x="410" y="1030"/>
                        </Array>
                    </mxGeometry>
                </mxCell>
                <mxCell id="54" value="SpinW" style="rectangle;whiteSpace=wrap;html=1;container=0;fillColor=#a20025;fontColor=#ffffff;strokeColor=#6F0000;" parent="1" vertex="1">
                    <mxGeometry x="265" y="720" width="160" height="100" as="geometry"/>
                </mxCell>
                <mxCell id="56" style="edgeStyle=none;html=1;entryX=0.5;entryY=1;entryDx=0;entryDy=0;fillColor=#a20025;strokeColor=#6F0000;" parent="1" source="54" target="55" edge="1">
                    <mxGeometry relative="1" as="geometry"/>
                </mxCell>
                <mxCell id="57" value="Atom" style="rounded=1;whiteSpace=wrap;html=1;container=0;fillColor=#a20025;fontColor=#ffffff;strokeColor=#6F0000;" parent="1" vertex="1">
                    <mxGeometry x="30" y="360" width="120" height="60" as="geometry"/>
                </mxCell>
                <mxCell id="64" value="Magnetic Space Group" style="rounded=1;whiteSpace=wrap;html=1;container=0;fillColor=#a20025;fontColor=#ffffff;strokeColor=#6F0000;" parent="1" vertex="1">
                    <mxGeometry x="390" y="350" width="120" height="90" as="geometry"/>
                </mxCell>
                <mxCell id="66" value="magnetic modulation&lt;br&gt;&lt;br&gt;independent &lt;b&gt;k&lt;/b&gt; and &lt;b&gt;n&lt;/b&gt;" style="rounded=1;whiteSpace=wrap;html=1;container=0;fillColor=#a20025;fontColor=#ffffff;strokeColor=#6F0000;" parent="1" vertex="1">
                    <mxGeometry x="380" y="570" width="120" height="60" as="geometry"/>
                </mxCell>
                <mxCell id="67" style="edgeStyle=none;sketch=0;jumpStyle=none;html=1;entryX=0.5;entryY=1;entryDx=0;entryDy=0;shadow=0;fillColor=#a20025;strokeColor=#6F0000;strokeWidth=5;" parent="1" source="54" target="66" edge="1">
                    <mxGeometry relative="1" as="geometry"/>
                </mxCell>
                <mxCell id="68" value="Couplings" style="rounded=1;whiteSpace=wrap;html=1;container=0;fillColor=#a20025;fontColor=#ffffff;strokeColor=#6F0000;" parent="1" vertex="1">
                    <mxGeometry x="30" y="600" width="120" height="60" as="geometry"/>
                </mxCell>
                <mxCell id="69" style="edgeStyle=none;sketch=0;jumpStyle=none;html=1;shadow=0;fillColor=#a20025;strokeColor=#6F0000;strokeWidth=5;entryX=1;entryY=0.5;entryDx=0;entryDy=0;" parent="1" source="54" target="68" edge="1">
                    <mxGeometry relative="1" as="geometry"/>
                </mxCell>
                <mxCell id="70" value="" style="edgeStyle=none;sketch=0;jumpStyle=none;html=1;entryX=0.5;entryY=1;entryDx=0;entryDy=0;shadow=0;endArrow=classic;fillColor=#a20025;strokeColor=#6F0000;strokeWidth=5;endFill=1;" parent="1" source="54" target="55" edge="1">
                    <mxGeometry relative="1" as="geometry">
                        <mxPoint x="320.0633695009303" y="621.6758874496702" as="sourcePoint"/>
                        <mxPoint x="110" y="395" as="targetPoint"/>
                    </mxGeometry>
                </mxCell>
                <mxCell id="55" value="Crystal" style="rounded=1;whiteSpace=wrap;html=1;container=0;fillColor=#a20025;fontColor=#ffffff;strokeColor=#6F0000;" parent="1" vertex="1">
                    <mxGeometry x="220" y="540" width="120" height="60" as="geometry"/>
                </mxCell>
                <mxCell id="71" value="" style="endArrow=classic;html=1;shadow=0;sketch=0;jumpStyle=none;exitX=0.25;exitY=0;exitDx=0;exitDy=0;entryX=0.5;entryY=1;entryDx=0;entryDy=0;fillColor=#a20025;strokeColor=#6F0000;strokeWidth=5;" parent="1" source="55" target="57" edge="1">
                    <mxGeometry relative="1" as="geometry">
                        <mxPoint x="390" y="470" as="sourcePoint"/>
                        <mxPoint x="490" y="470" as="targetPoint"/>
                    </mxGeometry>
                </mxCell>
                <mxCell id="72" value="Tuple[...]" style="edgeLabel;resizable=0;html=1;align=center;verticalAlign=middle;" parent="71" connectable="0" vertex="1">
                    <mxGeometry relative="1" as="geometry"/>
                </mxCell>
                <mxCell id="79" value="Plot structure" style="ellipse;whiteSpace=wrap;html=1;fillColor=#60a917;fontColor=#ffffff;strokeColor=#2D7600;" parent="1" vertex="1">
                    <mxGeometry x="440" y="840" width="120" height="80" as="geometry"/>
                </mxCell>
                <mxCell id="87" style="edgeStyle=none;sketch=0;jumpStyle=none;html=1;shadow=0;endArrow=none;endFill=0;fillColor=#60a917;strokeColor=#2D7600;strokeWidth=5;" parent="1" source="80" target="86" edge="1">
                    <mxGeometry relative="1" as="geometry"/>
                </mxCell>
                <mxCell id="80" value="Plot dispersions" style="ellipse;whiteSpace=wrap;html=1;fillColor=#60a917;fontColor=#ffffff;strokeColor=#2D7600;" parent="1" vertex="1">
                    <mxGeometry x="440" y="990" width="120" height="80" as="geometry"/>
                </mxCell>
                <mxCell id="85" style="edgeStyle=none;sketch=0;jumpStyle=none;html=1;shadow=0;endArrow=none;endFill=0;fillColor=#60a917;strokeColor=#2D7600;strokeWidth=5;" parent="1" source="84" target="79" edge="1">
                    <mxGeometry relative="1" as="geometry"/>
                </mxCell>
                <mxCell id="84" value="Main parameters are extent and plot_engine, secondary parameters (with default values) are plotting options.&lt;br&gt;Will collect all objects within the extent (atoms, arrows, bonds, anisotropy ellipsoids) and delegate plotting to the factory that handles different engines.&amp;nbsp;" style="rounded=0;whiteSpace=wrap;html=1;fillColor=#60a917;fontColor=#ffffff;strokeColor=#2D7600;" parent="1" vertex="1">
                    <mxGeometry x="620" y="805" width="270" height="150" as="geometry"/>
                </mxCell>
                <mxCell id="86" value="Plot spin wave excitations" style="rounded=0;whiteSpace=wrap;html=1;fillColor=#60a917;fontColor=#ffffff;strokeColor=#2D7600;" parent="1" vertex="1">
                    <mxGeometry x="620" y="1007.5" width="270" height="45" as="geometry"/>
                </mxCell>
                <mxCell id="61" value="Lattice" style="rounded=1;whiteSpace=wrap;html=1;container=0;fillColor=#a20025;fontColor=#ffffff;strokeColor=#6F0000;shadow=1;" parent="1" vertex="1">
                    <mxGeometry x="220" y="340" width="120" height="60" as="geometry"/>
                </mxCell>
                <mxCell id="91" value="Magnetic Symmetry Operation" style="rounded=1;whiteSpace=wrap;html=1;container=0;fillColor=#a20025;fontColor=#ffffff;strokeColor=#6F0000;" vertex="1" parent="1">
                    <mxGeometry x="365" y="135" width="120" height="90" as="geometry"/>
                </mxCell>
                <mxCell id="92" value="" style="endArrow=classic;html=1;shadow=0;sketch=0;jumpStyle=none;exitX=0.5;exitY=0;exitDx=0;exitDy=0;entryX=0.5;entryY=1;entryDx=0;entryDy=0;fillColor=#a20025;strokeColor=#6F0000;strokeWidth=5;" edge="1" parent="1" source="64" target="91">
                    <mxGeometry relative="1" as="geometry">
                        <mxPoint x="320" y="305" as="sourcePoint"/>
                        <mxPoint x="320.0000000000001" y="180" as="targetPoint"/>
                    </mxGeometry>
                </mxCell>
                <mxCell id="93" value="List[...]" style="edgeLabel;resizable=0;html=1;align=center;verticalAlign=middle;" connectable="0" vertex="1" parent="92">
                    <mxGeometry relative="1" as="geometry"/>
                </mxCell>
                <mxCell id="94" value="" style="endArrow=classic;html=1;shadow=0;sketch=0;jumpStyle=none;exitX=0.75;exitY=0;exitDx=0;exitDy=0;entryX=0.5;entryY=1;entryDx=0;entryDy=0;fillColor=#a20025;strokeColor=#6F0000;strokeWidth=5;" edge="1" parent="1" source="55" target="64">
                    <mxGeometry relative="1" as="geometry">
                        <mxPoint x="290" y="550" as="sourcePoint"/>
                        <mxPoint x="290.0000000000001" y="425" as="targetPoint"/>
                    </mxGeometry>
                </mxCell>
                <mxCell id="95" value="field" style="edgeLabel;resizable=0;html=1;align=center;verticalAlign=middle;" connectable="0" vertex="1" parent="94">
                    <mxGeometry relative="1" as="geometry">
                        <mxPoint x="-5" y="5" as="offset"/>
                    </mxGeometry>
                </mxCell>
                <mxCell id="97" value="" style="endArrow=classic;html=1;shadow=0;sketch=0;jumpStyle=none;exitX=0.5;exitY=0;exitDx=0;exitDy=0;fillColor=#a20025;strokeColor=#6F0000;strokeWidth=5;" edge="1" parent="1" source="55" target="61">
                    <mxGeometry relative="1" as="geometry">
                        <mxPoint x="49.999999999999886" y="510" as="sourcePoint"/>
                        <mxPoint x="179.9999999999999" y="400" as="targetPoint"/>
                    </mxGeometry>
                </mxCell>
                <mxCell id="98" value="field" style="edgeLabel;resizable=0;html=1;align=center;verticalAlign=middle;" connectable="0" vertex="1" parent="97">
                    <mxGeometry relative="1" as="geometry">
                        <mxPoint x="1" y="5" as="offset"/>
                    </mxGeometry>
                </mxCell>
                <mxCell id="101" value="" style="endArrow=classic;html=1;dashed=1;exitX=0.015;exitY=0.69;exitDx=0;exitDy=0;exitPerimeter=0;entryX=0.5;entryY=0;entryDx=0;entryDy=0;strokeColor=#007FFF;shadow=1;" edge="1" parent="1" source="91" target="57">
                    <mxGeometry relative="1" as="geometry">
                        <mxPoint x="200" y="290" as="sourcePoint"/>
                        <mxPoint x="300" y="290" as="targetPoint"/>
                    </mxGeometry>
                </mxCell>
                <mxCell id="104" value="" style="endArrow=classic;html=1;dashed=1;strokeColor=#007FFF;shadow=1;" edge="1" parent="1" source="68" target="55">
                    <mxGeometry relative="1" as="geometry">
                        <mxPoint x="401.8000000000002" y="222.10000000000002" as="sourcePoint"/>
                        <mxPoint x="180" y="470" as="targetPoint"/>
                    </mxGeometry>
                </mxCell>
                <mxCell id="105" value="" style="endArrow=classic;html=1;dashed=1;strokeColor=#007FFF;shadow=1;exitX=0.75;exitY=0;exitDx=0;exitDy=0;" edge="1" parent="1" source="68" target="64">
                    <mxGeometry relative="1" as="geometry">
                        <mxPoint x="104.89361702127667" y="620" as="sourcePoint"/>
                        <mxPoint x="70" y="415" as="targetPoint"/>
                    </mxGeometry>
                </mxCell>
            </root>
        </mxGraphModel>
    </diagram>
</mxfile>